<svg xmlns="http://www.w3.org/2000/svg" height="800" width="1200" viewBox="-30.03561 -15.83435 260.30862 95.0061"><path d="M17.5 53.9374l-1.5 4.9c-.2.8-.7 1.4-1.4 1.9s-1.4.7-2.3.7c-.8 0-1.4-.2-1.7-.5-.4-.3-.6-.8-.5-1.4 0-.1 0-.2.1-.4 0-.1.1-.2.1-.3l1.5-4.9h1.5l-1.4 4.8v.4c-.1.7.3 1 1.1 1 .4 0 .8-.1 1.1-.4.3-.2.5-.6.7-1l1.4-4.8zm106.6-.2l-2.3 7.5h-1.4l2.1-6.9zm-5.8 4.9c0-.1.1-.2.1-.4 0-.1 0-.2.1-.3 0-.3 0-.5-.2-.7-.1-.1-.4-.2-.7-.2-.4 0-.7.1-1.1.4-.3.3-.6.7-.7 1.2-.1.2-.1.3-.1.5 0 .4 0 .6.2.8.2.2.4.3.7.3.4 0 .7-.1 1-.4.3-.2.6-.6.7-1.2zm2.2-2.5h-1.3l-.2.6c-.1-.2-.3-.4-.5-.5-.2-.1-.5-.2-.9-.2-.7 0-1.3.3-1.9.8-.6.5-1 1.1-1.3 1.9-.1.3-.1.5-.1.7-.1.6.1 1.1.3 1.4.3.4.7.6 1.4.6.4 0 .7-.1 1-.2.3-.1.6-.3.8-.5l-.2.6h1.3zm-6-1.3c-.1.2-.2.4-.4.6-.2.2-.4.2-.6.2-.2 0-.4-.1-.5-.2-.1-.1-.2-.3-.1-.4v-.2c.1-.2.2-.4.4-.6.2-.2.4-.2.6-.2.2 0 .3.1.5.2.1.1.2.3.1.4.1.1 0 .1 0 .2zm-.4 1.1l-1.6 5.3h-1.4l1.4-4.6zm-2.1.2h-1.1l.6-1.9-3 3h.7l-1.2 4h1.4l1.2-4h.7zm-4.5 1.7l-1 3.4h-1.4l.9-3.1c0-.1.1-.2.1-.3 0-.5-.2-.7-.8-.7-.3 0-.6.1-.9.3-.3.2-.5.5-.6.8l-.9 2.9h-1.4l1.4-4.7 1.5-.7-.3.9c.3-.3.6-.5.9-.6.3-.1.7-.2 1-.2.5 0 .9.1 1.1.3.3.2.4.6.4 1v.7zm-7.4-.3c-.1-.2-.2-.3-.4-.4-.2-.1-.4-.2-.6-.2-.4 0-.8.2-1.2.5-.4.3-.7.7-.8 1v.4zm1.4.4l-4.2 1.9c.1.1.2.2.2.3.2.2.4.3.7.3.3 0 .7-.1 1-.4.1-.1.3-.2.4-.4l.8.6c-.3.3-.5.5-.7.6-.6.4-1.3.6-1.9.6-.7 0-1.2-.2-1.6-.6-.4-.4-.5-.9-.5-1.5 0-.2.1-.4.1-.6.2-.7.7-1.4 1.3-1.9.7-.6 1.5-.9 2.3-.9.6 0 1.1.2 1.5.5.3.4.5.9.6 1.5zm-5.3-1.8h-1.1l.6-1.9-3 3h.7l-1.2 4h1.4l1.2-4h.7zm-5.9 2.6c0-.1.1-.2.1-.3 0-.3-.1-.6-.3-.8-.2-.2-.5-.3-.8-.3-.4 0-.8.1-1.2.4-.4.3-.6.7-.8 1.1v.4c0 .4.1.6.3.8.2.2.5.3.8.3.4 0 .8-.1 1.2-.4.3-.4.5-.8.7-1.2zm1.3 0c-.2.7-.7 1.4-1.3 1.9-.7.6-1.5.9-2.3.9-.7 0-1.2-.2-1.6-.6-.4-.4-.6-.9-.5-1.6 0-.2.1-.4.1-.5.2-.8.7-1.4 1.4-2 .7-.5 1.4-.8 2.2-.8.6 0 1.2.2 1.6.6.4.4.6.9.5 1.6v.3s-.1.1-.1.2zm-8 0c0-.1 0-.2.1-.2v-.3c0-.4 0-.6-.2-.8-.2-.2-.4-.3-.8-.3-.7 0-1.3.5-1.6 1.6-.1.2-.1.4-.1.6-.1.6.2.9.8.9.4 0 .7-.1 1-.3.3-.2.6-.6.8-1.2zm1.4 0c-.2.8-.7 1.5-1.3 1.9-.6.5-1.2.7-1.9.7-.4 0-.7-.1-1-.3l-.3-.3-.6 2-1.6.6 2.2-7.2h1.3l-.2.6c.2-.2.5-.4.8-.5.3-.1.6-.2 1-.2.6 0 1 .2 1.3.5.3.4.5.8.4 1.5 0 .1 0 .4-.1.7zm-8.3-2.7l-.7 1.3h-.1c-.2 0-.3-.1-.3-.1-.3 0-.6.1-.9.3-.3.3-.6.6-.7 1l-.8 2.6h-1.4l1.4-4.7 1.5-.7-.2 1.1c.2-.3.5-.5.8-.6.3-.2.7-.2 1.1-.2h.3zm-4.8.1h-1.4l-.9 3.1c-.2.7-.7 1-1.4 1-.6 0-.9-.2-.8-.7 0-.1 0-.2.1-.3l.9-3.1H67l-1 3.3c0 .1-.1.2-.1.3v.2c0 .5.1.9.4 1.1.3.2.8.4 1.5.4.8 0 1.5-.2 2-.5s.9-.8 1.1-1.5zm-8.3 2.6c0-.1.1-.2.1-.3 0-.3-.1-.6-.3-.8-.2-.2-.5-.3-.8-.3-.4 0-.8.1-1.2.4-.4.3-.6.7-.8 1.1v.4c0 .4.1.6.3.8.2.2.5.3.8.3.4 0 .8-.1 1.2-.4.3-.4.6-.8.7-1.2zm1.3 0c-.2.7-.7 1.4-1.3 1.9-.7.6-1.5.9-2.3.9-.7 0-1.2-.2-1.6-.6-.4-.4-.6-.9-.5-1.6 0-.2.1-.4.1-.5.2-.8.7-1.4 1.4-2 .7-.5 1.4-.8 2.2-.8.6 0 1.2.2 1.6.6.4.4.6.9.5 1.6v.3s0 .1-.1.2zm-5.1-2.6h-1.5l-2.4 3.5-.3-3.5h-1.5l.6 5-1.5 2h1.6zm-10.1 1.6l-1.1 3.6h-1.3l.9-3.2v-.2c0-.5-.2-.7-.8-.7-.4 0-.7.1-.9.3-.3.2-.4.4-.5.7l-.9 3.1h-1.4l2.1-6.9 1.6-.7-.9 3c.2-.2.4-.3.5-.4.4-.3.9-.4 1.4-.4.5 0 .9.1 1.1.3.3.2.4.6.3 1 0 .2 0 .3-.1.5zm-5.9-1.4c-.2-.1-.3-.2-.4-.2-.4-.1-.8-.2-1.2-.2-.7 0-1.2.2-1.7.5-.4.3-.7.7-.9 1.1 0 0 0 .1-.1.2v.2c0 .5.3.8 1 1 .7.2 1.1.4 1 .7v.1c-.1.2-.2.4-.4.5-.2.1-.5.2-.8.2-.3 0-.7-.1-.9-.3-.1-.1-.2-.1-.3-.3l-.7 1.1c.2.1.3.2.5.3.4.2.8.2 1.3.2.7 0 1.3-.2 1.9-.5.5-.3.8-.7.9-1.2 0 0 0-.1.1-.2v-.2c0-.5-.3-.9-1-1.1-.7-.2-1.1-.5-1.1-.7v-.1c0-.2.2-.3.4-.4.2-.1.4-.2.6-.2.3 0 .5.1.8.2.1 0 .2.1.4.2zm-7.1 2.3c0-.1.1-.2.1-.4 0-.1 0-.2.1-.3 0-.3 0-.5-.2-.7-.1-.1-.4-.2-.7-.2-.4 0-.7.1-1.1.4-.3.3-.6.7-.7 1.2-.1.2-.1.3-.1.5 0 .4 0 .6.2.8.2.2.4.3.7.3.4 0 .7-.1 1-.4.3-.2.5-.6.7-1.2zm2.1-2.5l-1.5 5.1H36l.2-.6c-.2.2-.5.4-.8.5-.3.1-.7.2-1 .2-.6 0-1.1-.2-1.4-.6-.3-.4-.4-.8-.3-1.4 0-.2.1-.5.1-.7.2-.8.7-1.4 1.3-1.9.6-.5 1.3-.8 1.9-.8.4 0 .6.1.9.2.2.1.4.3.5.5l.2-.6h1.2zm-7.9 1.4c-.1-.2-.2-.3-.4-.4-.2-.1-.4-.2-.6-.2-.4 0-.8.2-1.2.5-.4.3-.7.7-.8 1v.4zm1.3.4l-4.2 1.9c.1.1.2.2.2.3.2.2.4.3.7.3.3 0 .7-.1 1-.4.1-.1.3-.2.4-.4l.8.6c-.3.3-.5.5-.7.6-.6.4-1.3.6-1.9.6-.7 0-1.2-.2-1.6-.6-.4-.4-.5-.9-.5-1.5 0-.2.1-.4.1-.6.2-.7.7-1.4 1.3-1.9.7-.6 1.5-.9 2.3-.9.6 0 1.1.2 1.5.5.4.4.6.9.6 1.5zm-5.3-4.2l-1.6.7-2.1 6.9h1.4zm-4.1 4.1c0-.1.1-.2.1-.3v-.2c0-.4-.1-.8-.4-1-.3-.2-.6-.3-1.1-.3-.4 0-.7.1-1 .2-.3.1-.6.3-.9.6l.3-.9-1.5.7-1.4 4.7h1.4l.9-2.9c.1-.3.3-.6.6-.8.3-.2.6-.3.9-.3.6 0 .8.2.8.7 0 .1 0 .2-.1.3l-1.1 2.9h1.4zm-10.2-56.8h176.3l-12.6 50.4H0z" clip-rule="evenodd" fill-rule="evenodd"/><path d="M32.2 28.7374l-.2-9.9-5.1 9.9zm6.5 10.1h-6.6l-.2-5.7h-7l-3 5.7h-6.7l14.9-25.2h6.4zm16.8-8.6c.4-1.6.3-2.7-.2-3.5-.5-.8-1.4-1.2-2.6-1.2-.9 0-1.7.4-2.5 1.2-.8.8-1.3 2-1.7 3.5-.4 1.5-.4 2.6 0 3.4.4.8 1.1 1.2 2.1 1.2 1.1 0 2.1-.4 3-1.3.9-.8 1.5-1.9 1.9-3.3zm5.8-.1c-.7 2.8-2.1 5.1-4.1 6.8-1.9 1.6-3.9 2.4-6.1 2.4-1.1 0-2-.2-2.8-.6-.6-.3-1.2-.9-1.7-1.6l-1.5 6.1-6.2 2.6 6.2-24.6h5.4l-.5 2.1c.7-.7 1.6-1.3 2.7-1.8 1-.4 2.1-.7 3.2-.7 2.3 0 4 .8 5 2.5 1 1.6 1.1 3.9.4 6.8zm10.8-4.4l-3.3 13.1h-5.6l3.3-13.1h-2.6l11.1-11.4-1.8 6.9h3.7l-2.6 4.5zm16.5.6c-.1-.5-.4-.9-1-1.2-.5-.3-1.1-.5-1.9-.5-1.2 0-2.3.5-3.4 1.4-1.1.9-1.8 1.9-2 3 0 .1-.1.3-.1.5v.6zm5.3 1.5l-12.7 5.9c.2.3.5.5.6.7.5.5 1.1.7 1.8.7 1 0 1.9-.3 2.8-1 .3-.2.7-.6 1.1-1l3.1 2.3c-2.6 2.7-5.5 4.1-8.7 4.1-2.6 0-4.5-.9-5.8-2.6-1.4-1.8-1.7-4.1-1-6.9.7-2.6 2.1-4.8 4.3-6.6 2.2-1.8 4.6-2.7 7.1-2.7 2.2 0 3.9.7 5.2 2 1.4 1.2 2.1 2.9 2.2 5.1zm18.1-5.7l-2.5 4.4c-.2-.1-.3-.3-.5-.4-.8-.6-1.8-.9-2.8-.9-1.1 0-2.2.5-3.3 1.4-1.1 1-1.8 2.1-2.1 3.4-.3 1.3-.2 2.3.5 3.2.7.9 1.6 1.3 2.8 1.3.7 0 1.5-.2 2.4-.5.3-.1.6-.3 1.1-.5l.4 4c-.7.4-1.3.7-1.8.9-1.5.6-3.1.9-4.7.9-2.4 0-4.2-.9-5.5-2.8-1.3-1.8-1.6-4-1-6.6.6-2.6 2.1-4.8 4.3-6.7 2.2-1.9 4.6-2.8 7.2-2.8 1.4 0 2.7.3 3.9.8.6.3 1.1.5 1.6.9zm15.7 16.7h-5.6l2.6-10.3c.2-.8.1-1.5-.2-2.1-.4-.5-.9-.8-1.8-.8-1 0-1.9.3-2.6.8-.7.5-1.2 1.3-1.5 2.2l-2.5 10.2h-5.6l5.7-22.8 6.4-3-2.5 10.2c.6-.7 1.5-1.3 2.6-1.8s2.2-.7 3.3-.7c1.9 0 3.3.5 4.2 1.6.9 1.1 1.1 2.6.6 4.4z" fill="#FEBE10" clip-rule="evenodd" fill-rule="evenodd"/><path d="M158.2 15.2374c-.9 3.8-3.5 6.4-5.8 5.8-2.4-.6-3.6-4.1-2.7-7.8.9-3.8 3.5-6.4 5.8-5.8 2.4.5 3.6 4 2.7 7.8zm9.3 6.2c-2.4 3-5.9 4.2-7.8 2.6-1.9-1.6-1.6-5.3.8-8.4 2.4-3 5.9-4.2 7.8-2.6 1.9 1.7 1.5 5.4-.8 8.4zm1.6 13.4c-2.4 2.7-5.7 3.5-7.5 1.8-1.8-1.7-1.3-5.2 1.1-7.8 2.4-2.7 5.7-3.5 7.5-1.8 1.8 1.7 1.3 5.2-1.1 7.8zm-21.4-15.1c.2 3.5-1.7 6.4-4.1 6.6-2.4.1-4.5-2.6-4.7-6.1-.2-3.5 1.7-6.4 4.1-6.5 2.4-.3 4.5 2.5 4.7 6zm10.2 10.8c-2.4-6.1-7.6-4.4-7.6-4.4-7.3 2.2-10.6 6.7-10.6 6.7-5 7.1 6.9 8.2 6.9 8.2h.7v-8.5l.1-.1.1-.1.1-.1.1-.1.1-.1.1-.1.1-.1h3.3s.1 0 .1.1c0 0 .1 0 .1.1 0 0 .1 0 .2.1.1 0 .1 0 .2.1.1 0 .1 0 .2.1.1 0 .1 0 .2.1.1 0 .1.1.2.1s.1.1.2.1.1.1.2.1.1.1.2.1.1.1.2.1.1.1.2.1.1.1.2.1.1.1.2.1.1.1.2.1.1.1.2.1.1.1.2.1.1.1.2.1l.2.2.2.2.2.2c.1.1.1.1.1.2s.1.1.1.2.1.1.1.2.1.1.1.2.1.1.1.2.1.1.1.2.1.2.1.2c0 .1.1.2.1.2 0 .1.1.2.1.2 0 .1.1.2.1.3 0 .1.1.2.1.3 0 .1.1.2.1.3 0 .1.1.2.1.3 0 .1.1.2.1.3 0 .1.1.2.1.3 0 .1 0 .2.1.3 0 .1 0 .2.1.3v3.4l-.1.1-.1.1-.1.1s0 .1-.1.1c0 0 0 .1-.1.1 0 0 0 .1-.1.1 0 0 0 .1-.1.1l-.1.1-.1.1-.1.1-.1.1-.1.1-.1.1-.1.1-.1.1-.1.1-.1.1-.1.1-.1.1-.1.1-.1.1-.1.1-.1.1c-.1 0-.1.1-.2.1s-.1.1-.2.1-.1.1-.2.1-.1.1-.2.1c5.4 2.3 6.7-3.1 6.7-3.1.3-5.3-2.7-10.9-2.7-10.9zm1.1 7.2c.3.4.1 1-.3 1.3-.5.4-1.1.4-1.4.1-.3-.4-.1-1 .3-1.3.5-.4 1.1-.4 1.4-.1zm-.7-1.1c-.5.5-1.2.6-1.5.2-.4-.4-.2-1.1.3-1.6s1.2-.6 1.5-.2c.4.4.2 1.1-.3 1.6zm-.7-2.6c-.5.7-1.3.9-1.7.6-.5-.4-.4-1.2.1-1.9s1.3-.9 1.7-.6c.4.4.4 1.3-.1 1.9zm-1.5-2.4c-.6.8-1.5 1.1-2 .7-.5-.4-.5-1.4.1-2.1.6-.8 1.5-1.1 2-.7.5.4.4 1.3-.1 2.1zm-2.8-4.4c.7.6.7 1.8-.1 2.8-.8 1-1.9 1.4-2.7.8-.7-.6-.7-1.8.1-2.8.8-1 2-1.4 2.7-.8z" fill="#808285" clip-rule="evenodd" fill-rule="evenodd"/><path d="M152.9 44.4374c.3-.2.5-.4.5-.4 3.7-2.4 3.3-3.7 3.4-4.2-.2-8.4-7.1-8.7-7.1-8.7-2.1 0-2.6 2.7-2.6 2.7-.4 1.9.7 4.7.7 4.7.3 1.3-.2 2-.4 2.4 0 0 2.4.3 3.7 2.1 0 0 1 1.2 1.8 1.4zm6.1-6.7c.3.4.1 1-.3 1.3-.5.4-1.1.4-1.4.1-.3-.4-.1-1 .3-1.3.5-.4 1.1-.4 1.4-.1zm-.7-1.1c-.5.5-1.2.6-1.5.2-.4-.4-.2-1.1.3-1.6s1.2-.6 1.5-.2c.4.4.2 1.1-.3 1.6zm-.7-2.6c-.5.7-1.3.9-1.7.6-.5-.4-.4-1.2.1-1.9s1.3-.9 1.7-.6c.4.4.4 1.3-.1 1.9zm-1.5-2.4c-.6.8-1.5 1.1-2 .7-.5-.4-.5-1.4.1-2.1.6-.8 1.5-1.1 2-.7.5.4.4 1.3-.1 2.1zm-2.8-4.4c.7.6.7 1.8-.1 2.8-.8 1-1.9 1.4-2.7.8-.7-.6-.7-1.8.1-2.8.8-1 2-1.4 2.7-.8z" fill="#FEBE10" clip-rule="evenodd" fill-rule="evenodd"/><path d="M194.3 6.5374v-4.9h2.2c.4 0 .8 0 1 .1.2.1.4.2.5.5.1.2.2.5.2.7 0 .3-.1.6-.3.9-.2.2-.6.4-1 .5.2.1.3.2.4.2.2.2.4.4.5.6l.8 1.3h-.8l-.6-1c-.2-.3-.3-.5-.5-.7-.1-.2-.2-.3-.3-.3-.1-.1-.2-.1-.3-.1H195v2.2zm.6-2.7h1.4c.3 0 .5 0 .7-.1.2-.1.3-.2.4-.3.1-.1.1-.3.1-.4 0-.2-.1-.4-.3-.6-.2-.1-.4-.2-.8-.2h-1.5z"/><path d="M196.1 8.0374c2.2 0 3.9-1.8 3.9-3.9 0-2.2-1.8-3.9-3.9-3.9-2.2 0-3.9 1.8-3.9 3.9 0 2.2 1.8 3.9 3.9 3.9z" stroke-miterlimit="2.6131" stroke-width=".4748" stroke="#000" fill="none" clip-rule="evenodd"/></svg>